<svg width="132" height="55" viewBox="0 0 132 55" fill="none" xmlns="http://www.w3.org/2000/svg">
<path d="M0 31.7448V0.794216H11.3578L23.3773 16.8627L35.4006 0.794216H46.7584V46.2988H37.459V13.704L23.3773 32.4659L9.29935 13.704V31.7448H0Z" fill="#2D4E88"/>
<path d="M94.0765 14.4894C94.0765 12.6018 94.4417 10.8347 95.1723 9.18819C95.9029 7.54204 96.8883 6.09312 98.1279 4.84182C99.3676 3.59052 100.818 2.60284 102.478 1.87838C104.138 1.15392 105.921 0.791885 107.825 0.791885H112.407V9.74822H107.825C106.54 9.74822 105.434 10.2201 104.504 11.1639C103.574 12.1078 103.109 13.2164 103.109 14.4894C103.109 15.7625 103.574 16.8493 104.504 17.7493C105.434 18.6492 106.54 19.0994 107.825 19.0994H118.252C120.156 19.0994 121.938 19.4614 123.598 20.1859C125.259 20.9104 126.709 21.887 127.949 23.1165C129.188 24.3457 130.174 25.7836 130.904 27.4297C131.634 29.0762 132 30.8433 132 32.7309C132 34.619 131.634 36.386 130.904 38.0322C130.174 39.6787 129.188 41.1166 127.949 42.3457C126.709 43.5749 125.259 44.5409 123.598 45.2432C121.938 45.9459 120.156 46.2969 118.252 46.2969H94.0765V37.3405H118.252C119.536 37.3405 120.643 36.8908 121.573 35.9908C122.502 35.0909 122.967 34.0044 122.967 32.7309C122.967 31.4579 122.502 30.3603 121.573 29.4383C120.643 28.5166 119.536 28.0554 118.252 28.0554H107.825C105.965 28.0554 104.194 27.704 102.511 27.0017C100.829 26.2993 99.3676 25.3334 98.1279 24.1042C96.8883 22.875 95.9029 21.4372 95.1723 19.7907C94.4417 18.1445 94.0765 16.3992 94.0765 14.5554V14.4894Z" fill="#2D4E88"/>
<path d="M72.8747 48.7246C80.8505 48.7246 86.8295 45.4323 91.4849 40.1639L84.8365 33.5831C81.5161 37.5316 78.1881 39.5077 73.5403 39.5077C65.5606 39.5077 59.5778 32.9231 59.5778 24.3624C59.5778 15.1455 65.5606 9.21709 73.5403 9.21709C78.1881 9.21709 81.5161 11.1932 84.8365 14.4855L91.4849 8.56092C86.8295 2.6325 80.8505 0.000190735 73.5403 0.000190735C59.5778 0.000190735 49.609 9.87707 49.609 24.3624C49.609 38.1877 59.5778 48.7246 72.8747 48.7246Z" fill="#2D4E88"/>
<path d="M1.41626 48.1758V35.5926L2.00185 35.3507L2.31926 35.2298L3.19764 34.867C3.40925 34.7701 3.65742 34.6854 3.94213 34.6129C4.22684 34.54 4.62159 34.4554 5.12561 34.3588L6.1752 34.1894C6.87468 34.1086 7.4441 34.0681 7.88348 34.0681C8.61566 34.0681 9.27473 34.1528 9.86032 34.3222C10.4459 34.4916 10.9745 34.7541 11.4466 35.1088L11.8125 34.9597L12.203 34.7861L12.5936 34.661L13.0083 34.516C13.4639 34.3668 13.9602 34.2539 14.4973 34.1811C15.034 34.1044 15.5707 34.0681 16.1079 34.0681L16.8154 34.1166C18.5402 34.294 19.7441 34.8105 20.4274 35.6693C21.1107 36.5242 21.4524 37.9399 21.4524 39.9122V48.1758H17.2305V38.7426C17.2305 38.3515 17.0109 38.0128 16.5715 37.7221C16.2625 37.5287 15.8639 37.4318 15.3757 37.4318C15.1641 37.4318 14.9363 37.4562 14.6924 37.5043C14.1064 37.5687 13.5454 37.7705 13.0083 38.1093V48.1758H9.32321V39.4403C9.32321 38.6983 9.1974 38.178 8.945 37.8796C8.69299 37.5809 8.23322 37.4318 7.56607 37.4318C7.30598 37.4318 7.0455 37.4482 6.78503 37.4802C6.52494 37.5126 6.15904 37.6011 5.68657 37.7465L5.10137 37.9884V48.1758H1.41626Z" fill="#E53527"/>
<path d="M23.2095 34.4073H26.8946V42.925V43.3122C27.0085 43.9092 27.2689 44.3247 27.6756 44.5585C28.0781 44.7924 28.7291 44.9091 29.6198 44.9091C29.8679 44.9091 30.0834 44.8931 30.2665 44.861C30.6124 44.7802 30.8848 44.7157 31.0841 44.6672L31.6778 44.4979V34.4073H35.3629V50.8097C35.3629 50.8902 35.3629 50.9791 35.3629 51.076C35.314 51.2854 35.2817 51.4388 35.2655 51.5357C35.0051 52.8098 34.4029 53.7094 33.4595 54.2256C32.5158 54.7417 31.0514 55 29.0665 55L28.3589 54.9271V51.6364L28.7979 51.7813C28.9284 51.7813 29.0826 51.7813 29.2619 51.7813C29.4408 51.7813 29.6117 51.7813 29.7744 51.7813C30.5066 51.7813 31.0068 51.6566 31.2753 51.4063C31.5435 51.1564 31.6778 50.717 31.6778 50.0879V47.7646C31.32 47.8737 30.9945 47.9542 30.6974 48.0068C30.4046 48.0591 30.0307 48.1075 29.5751 48.156C29.1154 48.2003 28.6925 48.2243 28.302 48.2243C27.289 48.2243 26.439 48.0469 25.7557 47.6921C24.9381 47.2564 24.3402 46.7685 23.9578 46.2279C23.5715 45.6877 23.3234 44.974 23.2095 44.0866V43.6509V34.4073Z" fill="#E53527"/>
<path fill-rule="evenodd" clip-rule="evenodd" d="M72.5892 18.4654C75.1862 18.4654 77.2908 20.5522 77.2908 23.1273C77.2908 25.7062 75.1862 27.793 72.5892 27.793C69.9921 27.793 67.8876 25.7062 67.8876 23.1273C67.8876 20.5522 69.9921 18.4654 72.5892 18.4654Z" fill="#E53527"/>
<path d="M72.5892 18.4654C75.1862 18.4654 77.2908 20.5522 77.2908 23.1273C77.2908 25.7062 75.1862 27.793 72.5892 27.793C69.9921 27.793 67.8876 25.7062 67.8876 23.1273C67.8876 20.5522 69.9921 18.4654 72.5892 18.4654Z" stroke="#E53527" stroke-width="0.755867" stroke-miterlimit="22.926"/>
</svg>
