<svg xmlns="http://www.w3.org/2000/svg" xmlns:xlink="http://www.w3.org/1999/xlink" id="Layer_1" x="0px" y="0px"  viewBox="0 0 695.5 232.8" style="enable-background:new 0 0 695.5 232.8;" xml:space="preserve"><style type="text/css">	.st0{fill:#291770;}	.st1{enable-background:new    ;}	.st2{fill:#D9261C;}</style><path class="st0" d="M258.6,87.1c-2.1,0.4-4.2-1-4.6-3.2c-0.4-2.1,1-4.2,3.2-4.6L275,76l-34-57.4l-3-5.1l5.8-0.8l28.1-4.1l1.5-0.2 l1.3,0.9L335.4,51l0.2,0.1l0.1,0.1l0,0c1.5,1.2,3.1,2.3,4.7,3.3c1.7,1,3.5,1.8,5.3,2.5c9.8,3.7,21.5,3.9,32.7,0.9l0.3-0.1L635.5,10 l0,0c2.5-0.5,5.5-0.8,8.6-0.8c3,0,6.4,0.2,9.8,0.6c18.2,2.1,39.6,9.9,41.4,17.9c0,0.2,0.1,0.3,0.1,0.3c1.4,7.5-6.5,15.5-16.7,22 c-9.3,6-20.7,10.8-27.7,12.4c-0.5,0.1-0.8,0.2-1,0.2l-215.3,40.2c-2.1,0.4-4.2-1-4.6-3.1s1-4.2,3.1-4.6l215.3-40.2 c0.4-0.1,0.6-0.1,0.8-0.2c6.2-1.4,16.6-5.8,25.2-11.3c7.7-4.9,13.9-10.3,13.2-13.9c0-0.1,0,0,0,0c-1-4.7-19-10-34.6-11.8 c-3.1-0.4-6.1-0.5-8.9-0.5c-2.7,0-5.1,0.2-7,0.6l0,0l0,0h-0.1L380.3,65.7c-12.7,3.3-26.1,3.1-37.4-1.2c-2.2-0.9-4.4-1.9-6.4-3 c-2-1.2-4-2.5-5.8-4l-59.3-40.7l-20.7,3L284.6,77l2.9,4.8l-5.5,1"></path><g class="st1">	<path class="st0" d="M424,172.4v-50.1h13l12.8,36.4l12.7-36.4h13v50.1h-9.7l0.4-36.4l-12.7,36.4H446L433.4,136l0.4,36.4H424z"></path>	<path class="st0" d="M512.7,167.7c-1,1.8-2.5,3.2-4.4,4.2c-1.8,0.9-4.3,1.3-7.3,1.3c-5.6,0-10.3-1.9-14-5.7  c-3.8-3.9-5.6-8.6-5.6-14.2c0-2.6,0.5-5.2,1.4-7.6c0.9-2.3,2.3-4.4,4-6.3c1.9-2,4-3.5,6.3-4.4c2.4-0.9,5-1.4,7.8-1.4  c2.7,0,5.1,0.5,7.1,1.4c2.1,0.9,3.7,2.3,4.8,4.2v-4.6h8.6v37.9h-8.5V167.7z M493.4,161.1c2.1,2.2,4.7,3.2,7.8,3.2  c2.8,0,5.2-1.1,7.3-3.2c2.1-2.1,3.2-4.6,3.2-7.5c0-3.1-1.1-5.7-3.2-8c-2.1-2.2-4.6-3.3-7.5-3.3c-3,0-5.5,1.1-7.6,3.2  c-2.1,2.1-3.2,4.7-3.2,7.7C490.2,156.3,491.3,159,493.4,161.1z"></path>	<path class="st0" d="M539.4,144.9c-1.4,1.5-2,4.2-2,8.2v19.3h-8.8v-37.9h8.2v4.4c1.4-1.7,2.8-2.9,4.4-3.7c1.7-0.8,3.5-1.2,5.4-1.2  v8.2C543.2,142.4,540.8,143.3,539.4,144.9z"></path>	<path class="st0" d="M550.2,130.6v-8.4h8.6v8.4H550.2z M550.2,134.5h8.6v37.9h-8.6V134.5z"></path>	<path class="st0" d="M575.3,138.8c1.3-1.8,2.8-3.1,4.4-3.8c1.7-0.8,3.6-1.3,5.7-1.3c2.7,0,5.1,0.5,7.1,1.6c2,1,3.7,2.6,5.1,4.7  c0.8,1.2,1.4,2.8,1.9,4.7c0.4,1.8,0.6,4.3,0.6,7.7v20h-8.8v-16.8c0-5.1-0.6-8.6-1.8-10.4c-1.2-1.9-3.2-2.8-6.1-2.8  c-3,0-5.1,1-6.3,3.1c-1.3,2.1-1.9,5.7-1.9,10.7v16.2h-8.5v-37.9h8.6V138.8z"></path></g><g class="st1">	<path class="st2" d="M636.9,167.7c-1,1.8-2.5,3.2-4.4,4.2c-1.8,0.9-4.3,1.3-7.3,1.3c-5.6,0-10.3-1.9-14-5.7  c-3.8-3.9-5.6-8.6-5.6-14.2c0-2.6,0.5-5.2,1.4-7.6c0.9-2.3,2.3-4.4,4-6.3c1.9-2,4-3.5,6.3-4.4c2.4-0.9,5-1.4,7.8-1.4  c2.7,0,5.1,0.5,7.1,1.4c2.1,0.9,3.7,2.3,4.8,4.2v-4.6h8.6v37.9h-8.5V167.7z M617.6,161.1c2.1,2.2,4.7,3.2,7.8,3.2  c2.8,0,5.2-1.1,7.3-3.2c2.1-2.1,3.2-4.6,3.2-7.5c0-3.1-1.1-5.7-3.2-8c-2.1-2.2-4.6-3.3-7.5-3.3c-3,0-5.5,1.1-7.6,3.2  c-2.1,2.1-3.2,4.7-3.2,7.7C614.4,156.3,615.5,159,617.6,161.1z"></path>	<path class="st2" d="M653.1,130.6v-8.4h8.6v8.4H653.1z M653.1,134.5h8.6v37.9h-8.6V134.5z"></path>	<path class="st2" d="M680.1,144.9c-1.4,1.5-2,4.2-2,8.2v19.3h-8.8v-37.9h8.2v4.4c1.4-1.7,2.8-2.9,4.4-3.7c1.7-0.8,3.5-1.2,5.4-1.2  v8.2C683.9,142.4,681.5,143.3,680.1,144.9z"></path></g><path class="st0" d="M353.7,136.7L353.7,136.7L353.7,136.7 M353.7,136.7L353.7,136.7L353.7,136.7 M349.8,129.9L349.8,129.9  M353.5,136.8L353.5,136.8 M22.9,133.9c-1.8,1.2-4.3,0.7-5.4-1.1c-1.2-1.8-0.7-4.3,1.2-5.4c11-7.2,21.5-10,31.5-9.6s19.4,4,28.5,9.5 c8.4,5.1,16.9,7.7,25.5,7.7s17.4-2.6,26.3-7.7c10-6.3,20-9.1,30.1-8.9c10,0.2,19.9,3.3,29.8,8.9h0.1c8.7,5.2,17.3,7.7,25.9,7.7 c8.6,0,17.3-2.6,25.9-7.7l0,0c10.6-6.3,20.9-9.1,30.9-8.9c17.7,0.3,25.7,10.6,40.3,14.8c13.5,3.9,28,1.4,36.3-3.3l0,0l0,0 c1.4-0.8,3.6-2,6.4-3.5c2.6-1.4,5.8-3.1,9.4-4.9c18.5-9.3,47.2-22.4,67.8-26.4l13.3-2.6l1.5,7.7l-13.3,2.6 c-19.7,3.8-47.7,16.6-65.7,25.7c-3.5,1.8-6.7,3.4-9.3,4.8c-2.5,1.3-4.6,2.5-6.1,3.3l0,0l0,0l0,0l0,0l0,0c-0.1,0.1-0.2,0.1-0.2,0.1 l0,0l0,0l0,0l0,0l0,0l0,0l0,0l0,0c-9.8,5.5-26.6,8.4-42.1,3.9c-15.8-4.5-19.9-14.2-38.2-14.5c-8.6-0.2-17.5,2.3-26.7,7.8l0,0 c-9.9,5.9-19.9,8.8-29.9,8.8s-20-2.9-29.9-8.8c-8.8-4.9-17.4-7.7-26.1-7.9c-8.5-0.2-17.1,2.3-25.8,7.7l-0.2,0.1 c-10.2,5.9-20.3,8.8-30.3,8.8s-19.9-3-29.6-8.9c-8-4.9-16.2-8-24.8-8.4C41.4,125.3,32.5,127.7,22.9,133.9z"></path><g class="st1">	<path class="st0" d="M443.8,196.6c-1.2-1.7-2.6-2.9-4-3.7c-1.5-0.8-3.2-1.2-5.1-1.2c-3,0-5.6,1.1-7.7,3.3c-2.1,2.2-3.2,4.9-3.2,7.9  c0,3.3,1.1,6,3.2,8.2c2.1,2.2,4.7,3.3,7.7,3.3c1.9,0,3.5-0.4,5-1.2c1.5-0.8,2.8-1.9,3.9-3.5h3.1c-1.2,2.3-2.9,4.1-5,5.3  c-2.1,1.3-4.4,1.9-7,1.9c-4,0-7.3-1.3-9.9-4c-2.6-2.7-4-6.1-4-10.1c0-1.9,0.4-3.7,1.1-5.4c0.7-1.7,1.8-3.2,3.1-4.6  c1.3-1.3,2.7-2.3,4.3-2.9c1.6-0.7,3.3-1,5.2-1c2.7,0,5.1,0.7,7.2,2c2.1,1.3,3.8,3.2,5.1,5.5H443.8z"></path>	<path class="st0" d="M467.6,213.3c-0.8,1.2-1.9,2.1-3.3,2.8c-1.4,0.7-2.9,1-4.5,1c-3,0-5.5-1-7.5-3.1c-2-2-3-4.6-3-7.6  c0-3,1-5.6,3-7.6c2-2,4.6-3.1,7.6-3.1c1.6,0,3,0.3,4.3,1c1.3,0.6,2.4,1.5,3.3,2.7v-3.3h2.6v20.3h-2.6V213.3z M467.6,206.2  c0-2.2-0.8-4-2.3-5.6s-3.3-2.4-5.3-2.4c-2.2,0-4,0.8-5.6,2.4s-2.3,3.6-2.3,6c0,2.3,0.8,4.2,2.3,5.7c1.5,1.6,3.4,2.3,5.5,2.3  c2.1,0,3.9-0.8,5.4-2.5C466.8,210.5,467.6,208.6,467.6,206.2z"></path>	<path class="st0" d="M476.9,216.5h-2.6v-20.3h2.5v2.3c0.6-0.9,1.3-1.6,2.1-2s1.6-0.6,2.7-0.7l0,2.8c-1.6,0.1-2.8,0.6-3.5,1.5  s-1.1,2.2-1.1,4.1V216.5z"></path>	<path class="st0" d="M487.2,218.2c0.4,1.2,1.1,2.1,2.1,2.8c1,0.7,2.3,1,3.8,1c2.3,0,4.2-0.8,5.6-2.3c1.4-1.5,2.1-3.6,2.1-6.2v-0.5  c-1,1.3-2.1,2.4-3.4,3c-1.3,0.7-2.6,1-4.2,1c-3.1,0-5.6-1-7.6-3.1c-2-2-3-4.6-3-7.6c0-3,1-5.5,3-7.5c2-2,4.5-3.1,7.4-3.1  c1.7,0,3.2,0.3,4.4,0.9s2.4,1.6,3.3,2.9v-3.3h2.6v17c0,3.5-0.9,6.3-2.7,8.3c-1.8,2-4.2,3-7.4,3c-2.3,0-4.3-0.6-5.9-1.7  c-1.7-1.1-2.7-2.7-3.2-4.6H487.2z M485.4,206.2c0,2.4,0.8,4.4,2.3,6c1.5,1.6,3.3,2.4,5.5,2.4c2,0,3.8-0.8,5.3-2.4  c1.5-1.6,2.3-3.5,2.3-5.7c0-2.3-0.8-4.3-2.3-5.9c-1.5-1.6-3.3-2.5-5.4-2.5c-2.1,0-3.9,0.8-5.5,2.3S485.4,203.9,485.4,206.2z"></path>	<path class="st0" d="M506.3,206.4c0-3,1-5.5,3.1-7.7s4.5-3.2,7.3-3.2c2.9,0,5.5,1,7.5,3.1c2.1,2.1,3.1,4.6,3.1,7.5c0,3-1,5.6-3,7.8  c-2,2.1-4.5,3.2-7.4,3.2c-2.9,0-5.4-1.1-7.5-3.2C507.3,211.9,506.3,209.3,506.3,206.4z M509,206.3c0,2.3,0.7,4.3,2.2,5.9  s3.3,2.4,5.6,2.4c2.2,0,4-0.8,5.5-2.4s2.2-3.6,2.2-5.9c0-2.4-0.7-4.4-2.2-5.9c-1.5-1.5-3.4-2.3-5.7-2.3c-2.1,0-3.8,0.8-5.3,2.4  C509.8,202,509,204,509,206.3z"></path>	<path class="st0" d="M540,208.8h2.6c0,1.7,0.5,3,1.4,4c0.9,1,2.1,1.5,3.5,1.5c1.6,0,2.8-0.5,3.7-1.5c0.9-1,1.4-2.3,1.4-4  c0-2.4-1.9-4.3-5.7-5.5c-0.3-0.1-0.5-0.2-0.7-0.2c-2-0.7-3.4-1.5-4.3-2.6c-0.9-1-1.3-2.4-1.3-4.1c0-2.1,0.7-3.9,2-5.3  c1.3-1.4,3.1-2.1,5.2-2.1c2,0,3.6,0.6,4.8,1.9c1.2,1.2,1.8,3,2,5.2h-2.5c-0.1-1.5-0.6-2.6-1.3-3.4s-1.7-1.2-3-1.2  c-1.3,0-2.4,0.4-3.3,1.3c-0.8,0.9-1.3,2-1.3,3.3c0,0.7,0.1,1.3,0.4,1.8c0.3,0.5,0.7,1,1.2,1.4c0.6,0.4,1.7,0.9,3.3,1.4  c0.9,0.3,1.6,0.5,2.1,0.7c1.8,0.7,3,1.5,3.8,2.6s1.2,2.4,1.2,4.2c0,2.6-0.7,4.7-2.1,6.3c-1.4,1.6-3.3,2.4-5.7,2.4  c-2.2,0-4-0.8-5.3-2.3S540,211.3,540,208.8z"></path>	<path class="st0" d="M578.6,207.2h-18.4c0.2,2.2,1,4,2.4,5.4c1.4,1.4,3.2,2,5.4,2c1.5,0,2.9-0.4,4.1-1.2c1.2-0.8,2.2-1.9,2.8-3.3h3  c-0.9,2.2-2.3,4-3.9,5.2c-1.7,1.2-3.7,1.8-5.9,1.8c-3,0-5.5-1.1-7.5-3.2c-2-2.1-3.1-4.6-3.1-7.6c0-3.1,1-5.7,3-7.7c2-2,4.6-3,7.7-3  c3.1,0,5.5,1.1,7.5,3.2c1.9,2.1,2.9,4.8,2.9,8.2V207.2z M575.7,204.9c-0.5-2.3-1.4-4-2.7-5.1c-1.3-1.1-3-1.7-5.2-1.7  c-2,0-3.6,0.6-5,1.8c-1.4,1.2-2.2,2.9-2.5,5H575.7z"></path>	<path class="st0" d="M584.2,216.5h-2.6v-20.3h2.5v2.3c0.6-0.9,1.3-1.6,2.1-2s1.6-0.6,2.7-0.7l0,2.8c-1.6,0.1-2.8,0.6-3.5,1.5  s-1.1,2.2-1.1,4.1V216.5z"></path></g><g class="st1">	<path class="st0" d="M600.4,216.5H598l-7.9-20.3h2.8l6.5,16.4l6.6-16.4h2.8L600.4,216.5z"></path>	<path class="st0" d="M613.1,193.8h-2.6v-4.2h2.6V193.8z M610.5,216.5v-20.3h2.6v20.3H610.5z"></path>	<path class="st0" d="M633.6,202.4c-0.8-1.5-1.8-2.6-2.9-3.3s-2.5-1.1-4.1-1.1c-2.1,0-3.9,0.8-5.3,2.4c-1.5,1.6-2.2,3.6-2.2,5.9  s0.7,4.3,2.2,5.9s3.3,2.4,5.4,2.4c1.6,0,3-0.4,4.2-1.2c1.2-0.8,2.1-1.9,2.8-3.3h2.9c-0.8,2.2-2,3.9-3.7,5.1s-3.7,1.8-6,1.8  c-2.9,0-5.4-1-7.5-3.1c-2-2.1-3-4.6-3-7.6c0-3,1-5.6,3.1-7.6s4.5-3.1,7.5-3.1c2.2,0,4.2,0.6,5.8,1.8c1.7,1.2,2.9,2.9,3.8,5H633.6z"></path>	<path class="st0" d="M660.2,207.2h-18.4c0.2,2.2,1,4,2.4,5.4c1.4,1.4,3.2,2,5.4,2c1.5,0,2.9-0.4,4.1-1.2c1.2-0.8,2.2-1.9,2.8-3.3h3  c-0.9,2.2-2.3,4-3.9,5.2c-1.7,1.2-3.7,1.8-5.9,1.8c-3,0-5.5-1.1-7.5-3.2s-3.1-4.6-3.1-7.6c0-3.1,1-5.7,3-7.7c2-2,4.6-3,7.7-3  c3.1,0,5.5,1.1,7.5,3.2c1.9,2.1,2.9,4.8,2.9,8.2V207.2z M657.4,204.9c-0.5-2.3-1.4-4-2.7-5.1s-3-1.7-5.2-1.7c-2,0-3.6,0.6-5,1.8  c-1.4,1.2-2.2,2.9-2.5,5H657.4z"></path>	<path class="st0" d="M661.9,210.1h2.7v0.1c0,1.3,0.4,2.3,1.1,3.2c0.7,0.8,1.6,1.2,2.7,1.2c1,0,1.9-0.3,2.6-1s1-1.4,1-2.4  s-0.3-1.8-0.8-2.3c-0.5-0.6-1.5-1.1-2.9-1.7c-2.3-0.8-3.7-1.6-4.4-2.5c-0.7-0.8-1-2-1-3.4c0-1.6,0.6-2.9,1.7-4s2.5-1.7,4.2-1.7  c1.7,0,3.1,0.5,4.1,1.5s1.6,2.4,1.6,4.1h-2.8c-0.1-1-0.4-1.7-0.9-2.2c-0.5-0.5-1.3-0.8-2.2-0.8c-0.9,0-1.6,0.3-2.1,0.9  c-0.6,0.6-0.9,1.3-0.9,2.1c0,0.6,0.1,1.1,0.4,1.5s0.6,0.8,1.2,1.1c0.5,0.3,1.2,0.6,2.2,0.9c0.9,0.3,1.6,0.5,1.9,0.6  c1.3,0.5,2.2,1.3,2.8,2.2c0.6,0.9,0.9,2,0.9,3.4c0,1.8-0.6,3.2-1.8,4.3c-1.2,1.1-2.8,1.7-4.6,1.7c-1.9,0-3.4-0.6-4.6-1.9  C662.6,213.9,662,212.3,661.9,210.1z"></path></g></svg>